<?xml version="1.0" encoding="utf-8"?>
<!-- Generator: Adobe Illustrator 15.0.0, SVG Export Plug-In  -->
<!DOCTYPE svg PUBLIC "-//W3C//DTD SVG 1.1//EN" "http://www.w3.org/Graphics/SVG/1.1/DTD/svg11.dtd" [
	<!ENTITY ns_flows "http://ns.adobe.com/Flows/1.0/">
]>
<svg version="1.1"
	 xmlns="http://www.w3.org/2000/svg" xmlns:xlink="http://www.w3.org/1999/xlink" xmlns:a="http://ns.adobe.com/AdobeSVGViewerExtensions/3.0/"
	 x="0px" y="0px" width="110px" height="96px" viewBox="0 0 123 107" enable-background="new 0 0 123 107" xml:space="preserve">
<defs>
</defs>
<path fill="#3A4D06" d="M11.496,76.611c0,0-12.849-10.707-10.81-22.23c2.04-11.523,8.158-18.254,8.158-18.254
	s-0.407-3.366,3.774-5.1c4.181-1.733,6.935-2.854,6.935-2.854s-6.12,1.427-5.61-2.142c0.511-3.57,16.114-20.702,37.732-23.557
	c0,0,23.659-7.139,46.604,5.609c0,0-19.478-6.119-28.044-5.813C61.668,2.575,44.028,0.741,19.96,19.912c0,0-7.14,6.73-4.487,6.935
	c2.652,0.204,6.425,0,4.997,1.529c-1.428,1.53-7.953,2.958-8.77,4.998s0.408,2.902-1.937,5.173
	c-2.346,2.271-8.975,15.732-7.956,20.525C2.828,63.864,11.496,76.611,11.496,76.611"/>
<path fill="#3A4D06" d="M72.223,8.796c0,0,29.522,0,41.913,16.368C114.136,25.164,105.723,14.15,72.223,8.796"/>
<path fill="#3A4D06" d="M82.166,17.974c0,0,27.84,8.261,40.842,31.206C123.008,49.18,116.583,23.328,82.166,17.974"/>
<path fill="#3A4D06" d="M56.314,35.565c0,0,7.955,0.765,13.92-1.988c5.966-2.754,17.132-6.425,19.427-5.507l2.294,0.918
	c0,0-7.495-0.417-23.557,6.674c0,0,10.402-1.167,16.979-0.709c6.578,0.459,19.732,3.593,19.732,3.593s-25.545-1.456-32.887,0
	s-9.79,1.303-9.79,1.303l-0.459-1.303l-5.66-0.686V35.565z"/>
<path fill="#3A4D06" d="M43.771,58.816c0,0,0.187,0.108,0.508,0.333c2.046,1.439,9.587,7.701,9.587,21.847v6.118
	c0,0-1.071,9.484-12.391,10.554c0,0,11.778,3.519,14.838-10.248V75.184C56.314,75.184,54.938,65.853,43.771,58.816"/>
<path fill="#3A4D06" d="M52.644,59.581c0,0,14.226,5.354,13.919,22.333c-0.305,16.979-2.753,22.18-12.083,24.934
	c0,0,15.603-0.306,14.837-16.214C68.552,74.725,71.458,71.513,52.644,59.581"/>
<path fill="#3A4D06" d="M69.344,65.394c0,0,12.058,10.708,10.68,22.181c-1.377,11.472-8.719,18.356-8.719,18.356
	S99.506,91.704,69.344,65.394"/>
<path fill="#3A4D06" d="M40.56,56.063c0,0,37.018-3.365,46.655,15.603c9.636,18.968,2.906,27.84-0.765,30.593
	c0,0,15.45-2.142,13.92-19.044C98.84,66.312,84.767,48.721,40.56,56.063"/>
<path fill="#3A4D06" d="M105.875,90.021c0,0,14.379-20.714-18.661-35.672c0,0-10.097-7.068-46.655,0c0,0,23.026-8.994,42.717-5.169
	c19.692,3.824,31.624,14.378,30.859,28.452C114.136,77.632,115.204,83.277,105.875,90.021"/>
<path fill="#3A4D06" d="M29.087,54.349c0,0,34.957-12.97,54.19-10.217c19.234,2.753,34.071,12.39,34.683,22.639l0.612,10.249
	c0,0,5.813-12.696-1.071-21.263C110.618,47.191,96.851,28.465,29.087,54.349"/>
<path fill="#3A4D06" d="M13.331,63.711c0,0,4.13-14.379,38.547-20.651C51.878,43.061,29.393,48.415,13.331,63.711"/>
<path fill="#3A4D06" d="M9.048,69.127c0,0-1.071-6.091,7.495-14.779c8.565-8.688,8.565-7.77,8.565-7.77V44.59
	c0,0,7.648,2.142,6.731-1.53c-0.918-3.671-2.142-4.515-2.142-4.515s4.895,2.23,15.603,1.308s12.696,0,12.696,0
	S15.778,44.408,9.048,69.127"/>
<path fill="#3A4D06" d="M18.379,36.483c0,0,3.659-1.945,7.648,3.37C26.027,39.854,21.133,36.024,18.379,36.483"/>
<path fill="#3A4D06" d="M17.308,32.047c0,0,4.181,0.204,3.212-1.835c-0.968-2.039,6.272,2.772,8.567-2.285
	c2.294-5.057,6.424-6.741,6.424-6.741s-7.997,7.037-2.01,3.978c0,0,4.764-1.224,9.046-6.271c4.284-5.049,13.767-7.496,13.767-7.496
	s-14.073,5.202-10.861,6.578c3.213,1.377,15.296,0.459,17.744,0c2.447-0.458,2.601-0.995,2.601-0.995s-19.274,4.672-22.027,4.745
	c-2.754,0.074-3.212,0.686-3.212,0.686s4.283,2.854,0.255,7.087c0,0-3.52,1.631-5.354-0.816c0,0,3.568,0.714,2.242-2.957
	c0,0-3.16-2.142-3.467,1.733c0,0-1.878,0.408-0.735,1.835c1.143,1.428,2.163,2.142,2.163,2.142s-1.53,0.114,1.836,0.618
	c3.365,0.503,4.054,0,4.054,0s-8.236,2.645-5.686,3.154c2.55,0.511,2.855,1.428,7.037,0c4.182-1.428,2.652,0.612,8.159-2.855
	c5.507-3.468,13.155-4.672,16.112-4.426c2.957,0.246,2.753,0,2.753,0s-6.816-1.184-23.965,8.045c0,0-7.342,2.872-10.502,2.023
	c-3.162-0.85-6.832-2.277-8.873-2.277C24.549,35.719,19.246,31.436,17.308,32.047"/>
<path fill="#3A4D06" d="M45.761,22.563v7.75c0,0,4.792-5.71,13.052-7.342c8.259-1.632,10.531-1.938,10.531-1.938L45.761,22.563z"/>
<rect id="_x3C_Slice_x3E__7_" fill="none" width="123" height="107"/>
</svg>
