<?xml version="1.0" encoding="utf-8"?>
<!-- Generator: Adobe Illustrator 15.0.0, SVG Export Plug-In  -->
<!DOCTYPE svg PUBLIC "-//W3C//DTD SVG 1.1//EN" "http://www.w3.org/Graphics/SVG/1.1/DTD/svg11.dtd" [
	<!ENTITY ns_flows "http://ns.adobe.com/Flows/1.0/">
]>
<svg version="1.1"
	 xmlns="http://www.w3.org/2000/svg" xmlns:xlink="http://www.w3.org/1999/xlink" xmlns:a="http://ns.adobe.com/AdobeSVGViewerExtensions/3.0/"
	 x="0px" y="0px" width="125px" height="125px" viewBox="0 0 185 185" enable-background="new 0 0 185 185" xml:space="preserve">
<defs>
</defs>
<path fill="#8DC144" d="M52.615,77.139c0,0-23.982,35.852-22.529,54.021c1.454,18.168,13.566,43.895,50.871,35.513
	c0,0,13.081,11.481,22.529,4.699c9.447-6.783,21.803-20.591,22.892-24.951c1.09-4.36-1.091-10.417-4.967-3.392
	s-2.397,10.416-19.366,25.92c0,0-13.336,9.689-33.2-22.044C48.98,115.171,52.615,77.139,52.615,77.139"/>
<path fill="#8DC144" d="M86.286,162.65c0,0,13.565-10.659,12.112-23.256c-1.453-12.597-6.298-25.92-21.317-40.938
	c-15.019-15.02-23.498-21.317-23.498-21.317S55.521,135.447,86.286,162.65"/>
<path fill="#00693B" d="M161.139,34.667V54.37h11.951V34.344l-18.087-18.732c0,0-7.752,0.644-6.783,6.136L161.139,34.667z"/>
<path fill="#00693B" d="M170.188,57.932c0,0-3.23,0.308-5.168,0.638c0,0,8.626,53.294-4.407,64.275
	c-13.034,10.982-25.953,13.567-27.891-2.583c-1.938-16.151,3.23-31.978,10.012-51.034c6.783-19.056,5.813-32.297,1.292-32.621
	c-3.34-0.238-5.09-0.125-5.779-0.049V24.936c0-11.671-13.444-13.444-13.444-13.444H51.888c-11.143,0-13.566,13.323-13.566,13.323
	v61.906c0,0,10.901-14.669,12.839-15.88c1.938-1.212,20.833,10.9,42.393,36.336c21.559,25.437,8.49,44.586,8.49,44.586h7.579
	c0,0,6.136-9.368,10.658-16.957c4.523-7.589,13.888,4.845,13.888,4.845l0.488,10.174h-5.494v2.907h10.987V139.65
	c-10.391-4.529-13.409-9.945-15.832-14.531c-2.423-4.585-1.211-14.066,0.727-30.109s13.202-36.281,13.202-36.281V41.677
	c1.111-0.276,4.487-0.828,4.487,2.682c0,4.199,1.615,8.397-4.522,24.869c-6.136,16.473-15.503,46.194-10.335,55.886
	c5.167,9.688,13.471,17.429,32.736,6.615C179.877,120.914,174.387,74.728,170.188,57.932 M128.436,57.76
	c0,11.627-7.267,11.385-7.267,11.385H57.944c-7.509,0-8.237-8.236-8.237-8.236V29.901c0-9.204,9.448-7.752,9.448-7.752h59.107
	c8.963,0,10.174,7.752,10.174,7.752V57.76z"/>
<path fill="#00693B" d="M135.139,105.726v19.394h1.459h3.552V96.696C135.956,89.929,135.139,105.726,135.139,105.726"/>
<path fill="#00693B" d="M145.151,161.438c-5.571-1.937-17.684-3.633-19.864,0c-2.18,3.634-12.354,11.144-12.354,11.144h39.001
	v-6.639C151.934,164.392,150.723,163.377,145.151,161.438"/>
<path fill="#00693B" d="M24.757,164.588v7.994h27.858c-7.025-0.242-16.957-10.417-19.622-11.628
	C30.329,159.743,24.757,164.588,24.757,164.588"/>
<path fill="#00693B" d="M94.522,162.65c6.783,4.36,10.417-3.876,10.417-3.876l-4.603,0.529
	C95.733,159.834,94.522,162.65,94.522,162.65"/>
<rect id="_x3C_Slice_x3E__7_" fill="none" width="185" height="185"/>
</svg>
