<?xml version="1.0" encoding="utf-8"?>
<!-- Generator: Adobe Illustrator 15.0.0, SVG Export Plug-In  -->
<!DOCTYPE svg PUBLIC "-//W3C//DTD SVG 1.1//EN" "http://www.w3.org/Graphics/SVG/1.1/DTD/svg11.dtd" [
	<!ENTITY ns_flows "http://ns.adobe.com/Flows/1.0/">
]>
<svg version="1.1"
	 xmlns="http://www.w3.org/2000/svg" xmlns:xlink="http://www.w3.org/1999/xlink" xmlns:a="http://ns.adobe.com/AdobeSVGViewerExtensions/3.0/"
	 x="0px" y="0px" width="90px" height="90px" viewBox="0 0 90 90" enable-background="new 0 0 90 90" xml:space="preserve">
<defs>
</defs>
<rect id="_x3C_Slice_x3E__7_" fill="none" width="90" height="90"/>
<path fill="#00693B" d="M31.735,24.744l23.097-13.508c0,0,2.702-1.485,5.674,1.216c2.971,2.701,9.185,9.455,12.696,9.185
	c3.512-0.271,13.981-3.241,13.981-3.241v25.933c0,0-10.47,2.971-12.901,0.541C71.852,42.438,55.237,26.5,55.237,26.5
	s-3.106-2.701-7.158-0.135c-4.053,2.566-11.616,5.943-11.616,5.943S28.764,31.632,31.735,24.744"/>
<path fill="#00693B" d="M52.266,32.037l17.965,17.83c0,0,2.025,6.079-4.728,4.862l-7.158-6.348c0,0-0.748,0,0.773,1.756
	c1.521,1.756,4.765,5.809,4.765,5.809s1.818,5.538-4.765,4.997l-8.743-7.429c0,0-1.891-0.136,0,1.486
	c1.891,1.621,6.349,5.98,6.349,5.98s2.296,6.311-4.592,5.365l-7.287-6.889c0,0-1.493-0.541-0.818,0.541
	c0.676,1.081,4.998,5.538,4.998,5.538s2.04,6.618-4.18,5.268c0,0-1.223-0.135-3.52-2.566c0,0,1.081-7.834-6.078-9.724
	c0,0-0.54-4.323-5.403-6.215c0,0-1.62-4.592-5.942-5.673c0,0-7.024-11.751-17.02-0.134l-4.377-0.665V15.424
	c0,0,8.294,5.267,12.616,3.782c4.322-1.486,15.938-8.645,20.53-7.834c4.593,0.81,5.809,2.837,5.809,2.837l-13.237,8.914
	c0,0-5.808,10.671,7.699,13.372l11.615-4.592C47.537,31.902,49.835,30.958,52.266,32.037"/>
<path fill="#00693B" d="M9.65,49.867c0,0-1.62,7.091,6.383,4.255c0,0-3.04,8.409,5.268,5.775c0,0-3.241,8.812,6.079,5.875
	c0,0-3.242,8.812,5.166,6.28c8.408-2.532,3.95-10.13,0.709-9.827l-2.202,0.102c0,0,1.897-7.293-5.599-6.079
	c0,0,1.722-6.889-5.47-5.774c0,0,1.216-7.901-6.687-5.37C13.298,45.105,10.969,45.815,9.65,49.867"/>
</svg>
