<?xml version="1.0" encoding="utf-8"?>
<!-- Generator: Adobe Illustrator 15.0.0, SVG Export Plug-In  -->
<!DOCTYPE svg PUBLIC "-//W3C//DTD SVG 1.1//EN" "http://www.w3.org/Graphics/SVG/1.1/DTD/svg11.dtd" [
	<!ENTITY ns_flows "http://ns.adobe.com/Flows/1.0/">
]>
<svg version="1.1"
	 xmlns="http://www.w3.org/2000/svg" xmlns:xlink="http://www.w3.org/1999/xlink" xmlns:a="http://ns.adobe.com/AdobeSVGViewerExtensions/3.0/"
	 x="0px" y="0px" width="90px" height="90px" viewBox="0 0 90 90" enable-background="new 0 0 90 90" xml:space="preserve">
<defs>
</defs>
<rect id="_x3C_Slice_x3E__7_" fill="none" width="90" height="90"/>
<path fill="#00693B" d="M23.125,12.417c0,0-10,6.125-11.25,13.75S31.5,31.542,31.5,31.542S23,21.042,23.125,12.417"/>
<path fill="#00693B" d="M4.125,31.852c0,0,2.75,3.065,10.125,2.94c0,0,3.625,1.25,0,1.25H4.625
	C4.625,36.042-0.25,34.286,4.125,31.852"/>
<path fill="#00693B" d="M42.75,36.042c0,0-12.375-6.25-14.125-24.875c0,0,5.75-3.625,7.063-3.5s0.438,9.75,2.063,15
	S41.875,35.917,42.75,36.042"/>
<path fill="#00693B" d="M67.308,12.417c0,0,10,6.125,11.25,13.75s-19.625,5.375-19.625,5.375S67.433,21.042,67.308,12.417"/>
<path fill="#00693B" d="M86.308,31.852c0,0-2.75,3.065-10.125,2.94c0,0-3.625,1.25,0,1.25h9.625
	C85.808,36.042,90.683,34.286,86.308,31.852"/>
<path fill="#00693B" d="M47.683,36.042c0,0,12.375-6.25,14.125-24.875c0,0-5.75-3.625-7.063-3.5c-1.312,0.125-0.437,9.75-2.062,15
	S48.558,35.917,47.683,36.042"/>
<path fill="#00693B" d="M45,5.917c0,0-5.5-1.125-3.125,9.25S43.75,25.417,45,25.417s2.75-5.91,3.125-9.768S50.375,6.792,45,5.917"/>
<path fill="#00693B" d="M2.302,45.292c0,0,8.921-4.5,13.56-4.5H73.75c0,0,13.5,2.75,13.5,5.125s-0.125,11.5-4.75,11.5
	c0,0-0.652,1.125-3.889-3.375s-8.736-6.5-32.611-6.5s-28.75-0.375-32.25,4.5s-3.5,5.5-5.375,5.5S3.479,54.542,2.302,45.292"/>
<path fill="#00693B" d="M9.082,63.917c0,0,5.043-4.25,17.168-2.25s13.875,4.625,27.25,2.25s15.643-2.5,21.071-2.125
	s7.804,1.875,6.179,3.875s-4.125,1.125-4.125,1.125s-1-5.969-15.375-2.734s-12.098,3.734-17.424,3.359S25.25,61.989,19,64.328
	S10.289,68.917,9.082,63.917"/>
<path fill="#00693B" d="M40.25,79.292c0.335-0.168,4.367-12.375,8.496-0.625c0,0,1.754,0.5,1.004-1.5s-3.125-8.625-7-4.75
	s-3.625,6.125-3.625,6.125S38.75,80.042,40.25,79.292"/>
<path fill="#00693B" d="M11.821,67.523c0,0-2.321,3.019-1.196,4.644s2.875,3.195,2.875,3.195l8.16-11.59
	c0,0-6.525,2.176-7.534,2.521S11.821,67.523,11.821,67.523"/>
<polygon fill="#00693B" points="15,76.542 17.5,77.917 26.636,63.956 23.749,63.724 "/>
<path fill="#00693B" d="M22.5,79.502l9.875,3.165c0,0,1.125,0,1.875-1s9.576-14.25,9.576-14.25l-11.321-2.398L22.5,79.502z"/>
<path fill="#00693B" d="M63.434,63.619L51.5,81.292l-2.061-2.601c0,0,1.211-1.733,0-3.329C48.229,73.766,46.5,70.82,46.5,70.82
	l2.245-3.631C48.745,67.189,60.981,63.974,63.434,63.619"/>
<path fill="#00693B" d="M70.607,63.189L57.625,81.918c0,0,1.75,1.75,3.375-0.625s11.85-17.674,11.85-17.674
	S71.58,63.262,70.607,63.189"/>
<path fill="#00693B" d="M65.75,79.502c0,0,10.706-13.515,10.134-14.076s0.741,1.366,0.741,1.366l1.986,0.131
	c0,0,1.861,3.264,0,5.941S74.125,79.212,65.75,79.502"/>
</svg>
