<?xml version="1.0" encoding="utf-8"?>
<!-- Generator: Adobe Illustrator 15.0.0, SVG Export Plug-In  -->
<!DOCTYPE svg PUBLIC "-//W3C//DTD SVG 1.1//EN" "http://www.w3.org/Graphics/SVG/1.1/DTD/svg11.dtd" [
	<!ENTITY ns_flows "http://ns.adobe.com/Flows/1.0/">
]>
<svg version="1.1"
	 xmlns="http://www.w3.org/2000/svg" xmlns:xlink="http://www.w3.org/1999/xlink" xmlns:a="http://ns.adobe.com/AdobeSVGViewerExtensions/3.0/"
	 x="0px" y="0px" width="110px" height="96px" viewBox="0 0 109 118" enable-background="new 0 0 109 118" xml:space="preserve">
<defs>
</defs>
<path fill="#024223" d="M7.413,28.755c0,0,2.72-4.647,3.627-5.781c0,0-0.112-4.081,3.062-7.82
	c3.173-3.741,11.107-10.088,14.395-11.222c3.287-1.133,5.78,0.793,4.421,3.968c-1.36,3.173,0.379,1.02,0.379,1.02l2.114-0.341
	l7.141-0.34l5.667,1.928l-1.247,0.566c0,0-17.682-8.049-34.344,22.103c0,0-0.453,1.247-1.813,0
	C9.454,31.59,7.753,30.229,7.413,28.755"/>
<path fill="#024223" d="M50.259,7.559c0,0,1.984-10.541,14.453-6.007C64.711,1.552,54-1.282,50.259,7.559"/>
<path fill="#024223" d="M67.545,4.556v7.141L61.254,9.43l6.971,3.91C68.225,13.34,69.528,8.466,67.545,4.556"/>
<path fill="#024223" d="M65.731,13.34c0,0-4.138,9.465-6.688,7.595c-2.55-1.871-3.684-4.308-3.797-4.592
	c-0.114-0.282,1.303,4.535,1.02,5.782c0,0,0.396-1.02,0.907-0.681c0.51,0.341,2.664,3.175,4.874,0.285
	C62.047,21.729,66.525,17.648,65.731,13.34"/>
<path fill="#024223" d="M37.281,28.131c0.453,0,10.428-4.816,10.428-4.816s1.077-0.056,1.53,0.737
	c0.454,0.793,10.882,12.865,12.015,12.921c1.134,0.057,1.436,0.454,4.572-1.869c3.136-2.324,10.674-7.368,13.62-6.462
	c2.947,0.907,5.044,1.757,6.404,0.341c1.36-1.417,1.304-2.211,1.304-2.211s1.133,4.703-1.928,4.703c-3.06,0-4.817-2.946-9.181-0.906
	c-4.364,2.041-10.995,5.894-12.185,7.253c-1.19,1.361-1.87,2.041-2.607,1.191c-0.737-0.852-10.995-13.036-11.562-13.602
	c-0.567-0.566-6.744,3.514-8.218,3.514S37.281,28.131,37.281,28.131"/>
<path fill="#024223" d="M54.963,35.953c0,0,0.339,0.566,0.283,2.891c-0.057,2.322,0,2.605,0,2.605h1.473c0,0-0.34-0.51-0.453-0.793
	S56.89,37.654,54.963,35.953"/>
<path fill="#024223" d="M56.72,44.171c0,0,10.088-6.009,11.788-6.065l1.7-0.056c0,0-0.907-2.55-14.367,4.817
	C55.841,42.867,54.85,44.342,56.72,44.171"/>
<path fill="#024223" d="M56.72,44.852c0,0,8.615-1.021,13.488,4.137c0,0-5.497-3.457-13.488-2.947V44.852z"/>
<path fill="#024223" d="M72.362,53.238c0,0,17.342-18.645,33.551,3.458C105.913,56.696,93.444,32.723,72.362,53.238"/>
<path fill="#024223" d="M63.464,47.723c0,0-6.782,17.305-7.084,18.893l-0.302,1.586l-3.098-0.606c0,0-0.832-1.51-2.721-1.51
	c-1.889,0-3.778,0.149-3.778,0.149l-0.453-1.283c0,0,2.191,0.604,3.4,0.453l1.208-0.15l1.663,0.68c0,0,2.248,1.209,2.447,1.209
	C54.944,67.143,62.085,44.852,63.464,47.723"/>
<path fill="#024223" d="M14.744,41.449l3.022,2.117h7.557c0,0,19.949-3.4,20.705-3.4s0.831-0.036,0.68,0.736
	c-0.15,0.774-2.267,10.9-1.662,16.267l-0.604,5.288c0,0-1.889,3.931-1.964,5.139c-0.076,1.209-0.152,1.89-0.152,1.89
	s0.907-3.854,1.36-7.405c0.453-3.551,0.453-11.639,0.605-14.207c0.15-2.569,1.36-6.424,1.36-6.424s-15.869,2.447-18.815,2.735
	c-2.947,0.288-6.348,0.88-7.935,0.585l-1.587-0.297L14.744,41.449z"/>
<path fill="#024223" d="M11.04,48.554l2.721,0.435c0,0,8.69-4.418,10.428-4.051c1.738,0.366,3.25,1.613,4.609,4.051
	c1.36,2.437,1.436,2.361,5.063,0.774S39,47.905,39,47.905l0.982,0.422c0,0-7.783,3.098-8.841,3.627
	c-1.058,0.528-1.511,0-3.325-2.569c-1.813-2.568-2.417-4.535-4.911-3.324c-2.494,1.208-8.766,5.439-8.766,5.439
	S12.854,51.197,11.04,48.554"/>
<path fill="#024223" d="M42.4,50.816c-0.114,0.281-8.615,2.422-7.935,4.008c0.68,1.589,4.534,3.553,4.383,6.349
	s-2.04,7.026-2.04,7.026s3.022-6.875-0.077-9.521c-3.097-2.646-5.137-4.685-1.888-6.196C38.093,50.973,43.534,48.018,42.4,50.816"/>
<path fill="#024223" d="M28.875,70.77c0,0,10.506,3.627,13.679,9.899c0,0,0.225-6.12-12.772-10.807
	C29.781,69.862,28.95,69.712,28.875,70.77"/>
<path fill="#024223" d="M42.25,73.188c0,0,2.342,1.058,5.364,0c3.023-1.057,5.97,0.235,5.97,0.235s-4.558,0.144-6.813,1.125
	C44.516,75.531,43.609,75.682,42.25,73.188"/>
<path fill="#024223" d="M59.024,73.188c0,0,2.116-0.075,2.796-1.511c0.68-1.437,2.796-1.059,1.965,0.377
	C63.785,72.054,61.82,74.171,59.024,73.188"/>
<path fill="#024223" d="M49.655,79.233c0,0-3.778,1.436-4.081,4.608h-0.831C44.743,83.842,45.65,78.175,49.655,79.233"/>
<path fill="#024223" d="M58.042,83.539c0,0,3.4,8.54-6.801,9.447c0,0-0.151,0.907,0,1.057c0.151,0.152,11.562,0.832,8.086-11.107
	L58.042,83.539z"/>
<path fill="#024223" d="M66.883,75.263c0,0,17.381,28.151,41.712,1.401C108.596,76.664,88.508,107.719,66.883,75.263"/>
<path fill="#024223" d="M1.595,103.264c0,0,17.836,27.053,40.958,2.266C42.553,105.529,22.301,133.792,1.595,103.264"/>
<rect id="_x3C_Slice_x3E__8_" fill="none" width="109" height="118"/>
</svg>
