<?xml version="1.0" encoding="utf-8"?>
<!-- Generator: Adobe Illustrator 15.0.0, SVG Export Plug-In  -->
<!DOCTYPE svg PUBLIC "-//W3C//DTD SVG 1.1//EN" "http://www.w3.org/Graphics/SVG/1.1/DTD/svg11.dtd" [
	<!ENTITY ns_flows "http://ns.adobe.com/Flows/1.0/">
]>
<svg version="1.1"
	 xmlns="http://www.w3.org/2000/svg" xmlns:xlink="http://www.w3.org/1999/xlink" xmlns:a="http://ns.adobe.com/AdobeSVGViewerExtensions/3.0/"
	 x="0px" y="0px" width="249px" height="119px" viewBox="0 0 249 119" enable-background="new 0 0 249 119" xml:space="preserve">
<defs>
</defs>
<polygon fill="#FFFFFF" stroke="#999999" stroke-miterlimit="10" points="96.391,1.109 0.552,96.979 0.531,99.417 13.646,118.292 
	237.25,118.292 248.766,99.406 248.742,96.992 152.844,1.094 "/>
<rect x="41.047" y="57.719" fill="#FFFFFF" width="1.344" height="3.672"/>
<path fill="#00693B" d="M89.469,36.785c0,0,2.305-3.938,3.073-4.898c0,0-0.096-3.458,2.594-6.627
	c2.689-3.17,9.412-8.548,12.197-9.509s4.898,0.672,3.746,3.362c-1.152,2.689,0.321,0.864,0.321,0.864l1.792-0.288l6.051-0.288
	l4.802,1.633l-1.056,0.48c0,0-14.983-6.819-29.103,18.729c0,0-0.384,1.057-1.536,0C91.197,39.186,89.757,38.034,89.469,36.785"/>
<path fill="#00693B" d="M125.774,18.824c0,0,1.681-8.932,12.246-5.09C138.021,13.734,128.943,11.333,125.774,18.824"/>
<path fill="#00693B" d="M140.421,16.279v6.051l-5.33-1.921l5.906,3.313C140.997,23.723,142.102,19.593,140.421,16.279"/>
<path fill="#00693B" d="M138.885,23.723c0,0-3.506,8.02-5.667,6.435c-2.161-1.584-3.121-3.649-3.218-3.89
	c-0.096-0.24,1.104,3.842,0.864,4.898c0,0,0.337-0.865,0.769-0.577c0.433,0.289,2.257,2.689,4.13,0.24
	C135.763,30.83,139.557,27.373,138.885,23.723"/>
<path fill="#00693B" d="M114.776,36.257c0.385,0,8.837-4.082,8.837-4.082s0.912-0.048,1.297,0.625
	c0.384,0.672,9.22,10.901,10.181,10.949c0.96,0.048,1.216,0.384,3.874-1.585c2.657-1.969,9.044-6.243,11.541-5.475
	c2.497,0.769,4.274,1.489,5.427,0.288s1.104-1.873,1.104-1.873s0.961,3.986-1.633,3.986c-2.593,0-4.082-2.498-7.779-0.769
	c-3.698,1.729-9.316,4.995-10.325,6.147s-1.585,1.729-2.209,1.009c-0.624-0.721-9.316-11.045-9.797-11.526
	c-0.48-0.48-5.715,2.978-6.963,2.978C117.082,36.929,114.776,36.257,114.776,36.257"/>
<path fill="#00693B" d="M129.76,42.884c0,0,0.288,0.48,0.24,2.449c-0.048,1.969,0,2.209,0,2.209h1.249c0,0-0.288-0.432-0.385-0.672
	C130.769,46.63,131.393,44.325,129.76,42.884"/>
<path fill="#00693B" d="M131.249,49.847c0,0,8.548-5.09,9.988-5.138l1.441-0.048c0,0-0.769-2.161-12.174,4.082
	C130.505,48.743,129.664,49.991,131.249,49.847"/>
<path fill="#00693B" d="M131.249,50.424c0,0,7.299-0.865,11.43,3.505c0,0-4.658-2.929-11.43-2.497V50.424z"/>
<path fill="#00693B" d="M144.503,57.531c0,0,14.695-15.8,28.43,2.929C172.933,60.46,162.368,40.146,144.503,57.531"/>
<path fill="#00693B" d="M136.964,52.857c0,0-5.747,14.664-6.003,16.008l-0.257,1.345l-2.625-0.513c0,0-0.704-1.28-2.305-1.28
	c-1.602,0-3.201,0.127-3.201,0.127l-0.385-1.088c0,0,1.856,0.512,2.882,0.384l1.023-0.128l1.409,0.576c0,0,1.905,1.024,2.073,1.024
	S135.795,50.424,136.964,52.857"/>
<path fill="#00693B" d="M95.68,47.542l2.562,1.793h6.402c0,0,16.904-2.881,17.545-2.881s0.704-0.03,0.576,0.625
	s-1.921,9.235-1.408,13.782l-0.513,4.482c0,0-1.601,3.33-1.664,4.354c-0.065,1.024-0.129,1.6-0.129,1.6s0.769-3.265,1.152-6.275
	c0.385-3.009,0.385-9.861,0.513-12.038c0.128-2.177,1.152-5.443,1.152-5.443s-13.446,2.073-15.943,2.317
	c-2.497,0.245-5.379,0.746-6.724,0.495l-1.344-0.25L95.68,47.542z"/>
<path fill="#00693B" d="M92.542,53.561l2.306,0.368c0,0,7.363-3.743,8.836-3.432s2.753,1.367,3.906,3.432
	c1.152,2.065,1.216,2.001,4.289,0.657c3.074-1.345,4.354-1.574,4.354-1.574l0.832,0.357c0,0-6.595,2.625-7.491,3.073
	s-1.28,0-2.817-2.177c-1.536-2.177-2.049-3.842-4.162-2.817c-2.112,1.024-7.428,4.61-7.428,4.61S94.079,55.802,92.542,53.561"/>
<path fill="#00693B" d="M119.114,55.479c-0.096,0.237-7.299,2.052-6.723,3.396s3.842,3.009,3.714,5.379
	c-0.128,2.369-1.729,5.955-1.729,5.955s2.561-5.826-0.064-8.068c-2.625-2.241-4.354-3.97-1.601-5.25
	C115.465,55.61,120.075,53.106,119.114,55.479"/>
<path fill="#00693B" d="M107.653,72.386c0,0,8.902,3.074,11.591,8.388c0,0,0.191-5.187-10.822-9.156
	C108.422,71.618,107.718,71.49,107.653,72.386"/>
<path fill="#00693B" d="M118.987,74.435c0,0,1.984,0.896,4.546,0c2.562-0.896,5.059,0.199,5.059,0.199s-3.862,0.121-5.772,0.954
	C120.908,76.42,120.14,76.548,118.987,74.435"/>
<path fill="#00693B" d="M133.201,74.435c0,0,1.793-0.063,2.37-1.28c0.576-1.217,2.368-0.897,1.664,0.32
	C137.235,73.475,135.57,75.268,133.201,74.435"/>
<path fill="#00693B" d="M125.262,79.558c0,0-3.201,1.217-3.458,3.906h-0.703C121.101,83.463,121.868,78.661,125.262,79.558"/>
<path fill="#00693B" d="M132.369,83.207c0,0,2.881,7.236-5.763,8.004c0,0-0.128,0.768,0,0.896c0.128,0.128,9.797,0.705,6.852-9.412
	L132.369,83.207z"/>
<path fill="#00693B" d="M139.861,76.193c0,0,14.728,23.855,35.345,1.188C175.206,77.381,158.186,103.694,139.861,76.193"/>
<path fill="#00693B" d="M84.538,99.92c0,0,15.113,22.923,34.706,1.921C119.244,101.841,102.083,125.789,84.538,99.92"/>
<rect id="_x3C_Slice_x3E__5_" fill="none" width="249" height="119"/>
<rect x="248.166" y="97.213" fill="#FFFFFF" width="1.151" height="2.058"/>
<rect x="0.025" y="97.198" fill="#FFFFFF" width="1.026" height="2.058"/>
</svg>
