<?xml version="1.0" encoding="utf-8"?>
<!-- Generator: Adobe Illustrator 15.0.0, SVG Export Plug-In  -->
<!DOCTYPE svg PUBLIC "-//W3C//DTD SVG 1.1//EN" "http://www.w3.org/Graphics/SVG/1.1/DTD/svg11.dtd" [
	<!ENTITY ns_flows "http://ns.adobe.com/Flows/1.0/">
]>
<svg version="1.1"
	 xmlns="http://www.w3.org/2000/svg" xmlns:xlink="http://www.w3.org/1999/xlink" xmlns:a="http://ns.adobe.com/AdobeSVGViewerExtensions/3.0/"
	 x="0px" y="0px" width="90px" height="90px" viewBox="0 0 90 90" enable-background="new 0 0 90 90" xml:space="preserve">
<defs>
</defs>
<rect id="_x3C_Slice_x3E__7_" fill="none" width="90" height="90"/>
<path fill="#00693B" d="M69.438,42.717H82.96L72.528,60.874l-5.794-12.942C66.734,47.932,69.632,44.455,69.438,42.717"/>
<path fill="#00693B" d="M68.665,36.922l18.327-15.067c0,0,1.136,18.93,0,18.351c-1.136-0.579-18.327,0.013-18.327,0.013
	S69.052,38.273,68.665,36.922"/>
<path fill="#00693B" d="M54.371,41.46c0,3.254,2.639,5.892,5.893,5.892s5.891-2.638,5.891-5.892c0-3.253-2.637-5.891-5.891-5.891
	S54.371,38.208,54.371,41.46"/>
<polygon fill="#00693B" points="66.154,33.445 68.665,27.07 74.848,27.07 "/>
<polygon fill="#00693B" points="73.301,15.48 86.992,15.48 79.097,23.98 70.501,23.98 "/>
<path fill="#00693B" d="M74.848,3.511c-0.773,0-12.364,28.388-12.364,28.388V3.511H74.848z"/>
<polygon fill="#00693B" points="74.848,12.003 79.868,12.003 83.925,3.511 78.081,3.511 "/>
<polygon fill="#00693B" points="62.483,49.862 68.666,62.611 62.483,66.861 "/>
<polygon fill="#00693B" points="62.483,71.303 70.501,66.861 70.501,80.575 62.483,80.575 "/>
<polygon fill="#00693B" points="74.848,64.736 80.834,54.498 86.992,58.362 86.992,63.963 80.918,72.462 "/>
<polygon fill="#00693B" points="74.848,69.952 74.848,82.893 86.992,82.893 "/>
<path fill="#00693B" d="M58.234,49.862c0,0-3.283-1.158-3.863-1.352l-0.579-0.193l-7.92,6.954h12.362V49.862z"/>
<polygon fill="#00693B" points="59.008,58.362 58.234,68.406 33.896,64.736 42.588,58.362 "/>
<polygon fill="#00693B" points="58.234,72.462 59.008,80.575 33.896,76.421 41.044,69.952 "/>
<polygon fill="#00693B" points="31.965,79.609 59.008,84.049 33.896,84.049 "/>
<polygon fill="#00693B" points="29.454,75.263 27.137,69.951 31.965,67.633 36.988,68.406 "/>
<path fill="#00693B" d="M25.977,67.633c0-0.387,12.749-10.624,12.749-10.624l-6.761-2.512l-10.817,6.568L25.977,67.633z"/>
<path fill="#00693B" d="M18.83,58.362c0.965,0.192,9.271-6.568,9.271-6.568L8.206,42.717H2.978v2.703L18.83,58.362z"/>
<polygon fill="#00693B" points="25.012,39.238 25.012,30.257 8.013,30.257 2.978,36.727 2.978,39.238 "/>
<polygon fill="#00693B" points="26.363,21.081 26.363,25.91 12.455,25.91 18.443,19.73 "/>
<polygon fill="#00693B" points="59.008,23.979 59.008,3.511 44.327,3.511 29.936,17.706 "/>
<polygon fill="#00693B" points="40.078,3.511 34.669,9.298 26.363,7.757 28.682,3.511 "/>
<polygon fill="#00693B" points="31.965,11.23 27.137,17.705 2.978,12.003 2.978,7.757 "/>
<polygon fill="#00693B" points="22.5,6.405 3.764,3.511 24.044,3.511 "/>
<path fill="#00693B" d="M15.539,42.717h14.396c0,0,2.029,5.601,11.688,9.077v2.704L15.539,42.717z"/>
<path fill="#DF314A" d="M60.264,36.341c0-12.748-14.14-15.197-14.392-15.197c-0.25,0-15.937,0.324-15.937,14.425
	s12.652,16.225,12.652,16.225l1.884,23.469l2.946-23.469C60.645,48.263,60.264,36.341,60.264,36.341 M44.943,49.862
	c-7.342,0-13.292-6.052-13.292-13.521c0-7.467,5.95-13.521,13.292-13.521c7.34,0,13.291,6.054,13.291,13.521
	C58.234,43.81,52.283,49.862,44.943,49.862"/>
<text transform="matrix(1 0 0 1 32.5957 36.002)" fill="#00693B" font-family="'LucidaBright-Demi'" font-size="5.2154">ANUNCIE </text>
<text transform="matrix(1 0 0 1 38.8242 42.2607)" fill="#00693B" font-family="'LucidaBright-Demi'" font-size="5.2154">AQUI</text>
</svg>
