<?xml version="1.0" encoding="utf-8"?>
<!-- Generator: Adobe Illustrator 15.0.0, SVG Export Plug-In  -->
<!DOCTYPE svg PUBLIC "-//W3C//DTD SVG 1.1//EN" "http://www.w3.org/Graphics/SVG/1.1/DTD/svg11.dtd" [
	<!ENTITY ns_flows "http://ns.adobe.com/Flows/1.0/">
]>
<svg version="1.1"
	 xmlns="http://www.w3.org/2000/svg" xmlns:xlink="http://www.w3.org/1999/xlink" xmlns:a="http://ns.adobe.com/AdobeSVGViewerExtensions/3.0/"
	 x="0px" y="0px" width="125px" height="125px" viewBox="0 0 185 185" enable-background="new 0 0 185 185" xml:space="preserve">
<defs>
</defs>
<path fill="#00693B" d="M124.334,88l26.333-19.5L177.334,88h-11.333c0,0,5,42.667-40.667,67l5.667-16.5l-17.334-11.167
	c0,0,21.501-11.667,22.501-39.333H124.334z"/>
<path fill="#00693B" d="M99.559,120.946l27.479,17.848l-8.938,31.804l-3.965-10.617c0,0-38.223,19.609-76.992-14.661l17.438-0.463
	l4.399-20.145c0,0,18.451,16.062,44.719,7.32L99.559,120.946z"/>
<path fill="#00693B" d="M58.907,108.665l-7.885,31.804l-32.979,1.948l8.738-7.218c0,0-31.026-29.713-11.313-77.556l6.141,16.33
	l20.475-2.428c0,0-9.148,22.688,7.699,44.655L58.907,108.665z"/>
<path fill="#00693B" d="M57.513,67.02l-32.554,3.73L11.605,40.534l9.816,5.663c0,0,16.992-39.456,68.708-37.711L76.977,19.947
	l9.432,18.334c0,0-24.453-0.64-39.146,22.824L57.513,67.02z"/>
<path fill="#00693B" d="M97.209,51.67L84.134,21.624l24.999-21.596l-2.549,11.043c0,0,42.697,4.729,56.133,54.699l-14.804-9.233
	l-14.78,14.375c0,0-6.529-23.574-33.262-30.772L97.209,51.67z"/>
<rect id="_x3C_Slice_x3E__7_" fill="none" width="185" height="185"/>
</svg>
