<?xml version="1.0" encoding="utf-8"?>
<!-- Generator: Adobe Illustrator 15.0.0, SVG Export Plug-In  -->
<!DOCTYPE svg PUBLIC "-//W3C//DTD SVG 1.1//EN" "http://www.w3.org/Graphics/SVG/1.1/DTD/svg11.dtd" [
	<!ENTITY ns_flows "http://ns.adobe.com/Flows/1.0/">
]>
<svg version="1.1"
	 xmlns="http://www.w3.org/2000/svg" xmlns:xlink="http://www.w3.org/1999/xlink" xmlns:a="http://ns.adobe.com/AdobeSVGViewerExtensions/3.0/"
	 x="0px" y="0px" width="32px" height="32px" viewBox="0 -2.269 32 32" enable-background="new 0 -2.269 32 32"
	 xml:space="preserve">
<defs>
</defs>
<rect x="1" y="6.731" fill="none" stroke="#444444" stroke-width="2" stroke-miterlimit="10" width="30" height="17"/>
<line fill="none" stroke="#444444" stroke-miterlimit="10" x1="24.783" y1="5.948" x2="18.131" y2="0.383"/>
<line fill="none" stroke="#444444" stroke-miterlimit="10" x1="25.131" y1="5.948" x2="31.783" y2="0.383"/>
<rect x="3" y="9.731" fill="#444444" width="2" height="2"/>
<rect x="6" y="9.731" fill="#444444" width="2" height="2"/>
<rect x="9" y="9.731" fill="#444444" width="2" height="2"/>
<rect x="12" y="9.731" fill="#444444" width="2" height="2"/>
<rect x="15" y="9.731" fill="#444444" width="2" height="2"/>
<rect x="18" y="9.731" fill="#444444" width="2" height="2"/>
<rect x="21" y="9.731" fill="#444444" width="2" height="2"/>
<rect x="24" y="9.731" fill="#444444" width="2" height="2"/>
<rect x="27" y="9.731" fill="#444444" width="2" height="2"/>
<rect x="3" y="12.731" fill="#444444" width="2" height="2"/>
<rect x="6" y="12.731" fill="#444444" width="2" height="2"/>
<rect x="9" y="12.731" fill="#444444" width="2" height="2"/>
<rect x="12" y="12.731" fill="#444444" width="2" height="2"/>
<rect x="15" y="12.731" fill="#444444" width="2" height="2"/>
<rect x="18" y="12.731" fill="#444444" width="2" height="2"/>
<rect x="21" y="12.731" fill="#444444" width="2" height="2"/>
<rect x="24" y="12.731" fill="#444444" width="2" height="2"/>
<rect x="27" y="12.731" fill="#444444" width="2" height="2"/>
<rect x="3" y="15.731" fill="#444444" width="2" height="2"/>
<rect x="6" y="15.731" fill="#444444" width="2" height="2"/>
<rect x="9" y="15.731" fill="#444444" width="2" height="2"/>
<rect x="12" y="15.731" fill="#444444" width="2" height="2"/>
<rect x="15" y="15.731" fill="#444444" width="2" height="2"/>
<rect x="18" y="15.731" fill="#444444" width="2" height="2"/>
<rect x="21" y="15.731" fill="#444444" width="2" height="2"/>
<rect x="24" y="15.731" fill="#444444" width="2" height="2"/>
<rect x="27" y="15.731" fill="#444444" width="2" height="2"/>
<rect x="3" y="18.731" fill="#444444" width="2" height="2"/>
<rect x="6" y="18.731" fill="#444444" width="2" height="2"/>
<rect x="9" y="18.731" fill="#444444" width="2" height="2"/>
<rect x="12" y="18.731" fill="#444444" width="2" height="2"/>
<rect x="15" y="18.731" fill="#444444" width="2" height="2"/>
<rect x="18" y="18.731" fill="#444444" width="2" height="2"/>
<rect x="21" y="18.731" fill="#444444" width="2" height="2"/>
<rect x="24" y="18.731" fill="#444444" width="2" height="2"/>
<rect x="27" y="18.731" fill="#444444" width="2" height="2"/>
</svg>
